//Event file generated from Sappy .s format.
	#include "MPlayDef.event"

	#define	AThousandTales_grp  voicegroup000
	#define	AThousandTales_pri  0
	#define	AThousandTales_rev  0
	#define	AThousandTales_mvl  127
	#define	AThousandTales_key  0
	#define	AThousandTales_tbs  1
	#define	AThousandTales_exg  0
	#define	AThousandTales_cmp  1

	// .rodata
	//	AThousandTales
	ALIGN 4


//**************** Track 1 (Midi-Chn.0) ****************//

AThousandTales_001:
// 000   ----------------------------------------
 BYTE   KEYSH   AThousandTales_key+0
Label_0_0176B726:
 BYTE   TEMPO   100*AThousandTales_tbs/2
 BYTE   VOICE   49
 BYTE   VOL   34*AThousandTales_mvl/mxv
 BYTE   PAN   c_v+0
 BYTE   An1
 BYTE   VOL   47*AThousandTales_mvl/mxv
 BYTE   BEND   c_v+0
 BYTE   W96
// 001   ----------------------------------------
 BYTE   W96
// 002   ----------------------------------------
 BYTE   W96
// 003   ----------------------------------------
 BYTE   W96
// 004   ----------------------------------------
 BYTE   W96
// 005   ----------------------------------------
 BYTE   W96
// 006   ----------------------------------------
 BYTE   W96
// 007   ----------------------------------------
 BYTE   W96
// 008   ----------------------------------------
Label_0_0176B73B:
 BYTE   N48  Bn1  v096
 BYTE   W48
 BYTE   N24  En2
 BYTE   W24
 BYTE   Gs2
 BYTE   W24
 BYTE   PEND 
// 009   ----------------------------------------
 BYTE   N48
 BYTE   W48
 BYTE   Cs2
 BYTE   W48
// 010   ----------------------------------------
Label_0_0176B749:
 BYTE   N60  Cs2  v096
 BYTE   W60
 BYTE   N12  Ds2
 BYTE   W12
 BYTE   En2
 BYTE   W12
 BYTE   Fs2
 BYTE   W12
 BYTE   PEND 
// 011   ----------------------------------------
 BYTE   N48  En2
 BYTE   W48
 BYTE   Ds2
 BYTE   W48
 BYTE   PATT
  POIN2 Label_0_0176B73B
// 012   ----------------------------------------
 BYTE   N48  Bn2  v096
 BYTE   W48
 BYTE   N24  An2
 BYTE   W24
 BYTE   Gs2
 BYTE   W24
 BYTE   PATT
  POIN2 Label_0_0176B749
// 013   ----------------------------------------
 BYTE   N48  Fs2  v096
 BYTE   W48
 BYTE   Bn1
 BYTE   W48
// 014   ----------------------------------------
 BYTE   W96
// 015   ----------------------------------------
 BYTE   W96
// 016   ----------------------------------------
 BYTE   W96
// 017   ----------------------------------------
 BYTE   W96
// 018   ----------------------------------------
 BYTE   W96
// 019   ----------------------------------------
 BYTE   W96
// 020   ----------------------------------------
 BYTE   W96
// 021   ----------------------------------------
 BYTE   W96
// 022   ----------------------------------------
 BYTE   W96
// 023   ----------------------------------------
 BYTE   W96
// 024   ----------------------------------------
 BYTE   W96
// 025   ----------------------------------------
 BYTE   W96
// 026   ----------------------------------------
 BYTE   W48
 BYTE   GoTo
  POIN2 Label_0_0176B726
 BYTE   FINE

//**************** Track 2 (Midi-Chn.1) ****************//

AThousandTales_002:
// 000   ----------------------------------------
 BYTE   KEYSH   AThousandTales_key+0
Label_1_0176B788:
 BYTE   VOICE   73
 BYTE   VOL   0*AThousandTales_mvl/mxv
 BYTE   PAN   c_v+0
 BYTE   Gn4
 BYTE   BEND   c_v+0
 BYTE   W96
// 001   ----------------------------------------
 BYTE   W96
// 002   ----------------------------------------
 BYTE   W96
// 003   ----------------------------------------
 BYTE   W96
// 004   ----------------------------------------
 BYTE   W96
// 005   ----------------------------------------
 BYTE   W96
// 006   ----------------------------------------
 BYTE   W96
// 007   ----------------------------------------
 BYTE   W96
// 008   ----------------------------------------
 BYTE   W96
// 009   ----------------------------------------
 BYTE   W96
// 010   ----------------------------------------
 BYTE   W96
// 011   ----------------------------------------
 BYTE   W96
// 012   ----------------------------------------
 BYTE   W96
// 013   ----------------------------------------
 BYTE   W96
// 014   ----------------------------------------
 BYTE   W96
// 015   ----------------------------------------
 BYTE   W96
// 016   ----------------------------------------
 BYTE   W96
// 017   ----------------------------------------
 BYTE   W96
// 018   ----------------------------------------
 BYTE   W96
// 019   ----------------------------------------
 BYTE   W96
// 020   ----------------------------------------
Label_1_0176B7A5:
 BYTE   VOL   49*AThousandTales_mvl/mxv
 BYTE   N48  Fs4  v096
 BYTE   W48
 BYTE   N24  Cs4
 BYTE   W24
 BYTE   Fs4
 BYTE   W24
 BYTE   PEND 
// 021   ----------------------------------------
 BYTE   Gs4
 BYTE   W24
 BYTE   As4
 BYTE   W24
 BYTE   N48  Fs4
 BYTE   W48
// 022   ----------------------------------------
 BYTE   N12  Bn4
 BYTE   W12
 BYTE   As4
 BYTE   W12
 BYTE   N48  Fs4
 BYTE   W48
 BYTE   N12  En4
 BYTE   W12
 BYTE   Fs4
 BYTE   W12
// 023   ----------------------------------------
 BYTE   N48  Ds4
 BYTE   W48
 BYTE   N24  En4
 BYTE   W24
 BYTE   Fs4
 BYTE   W24
 BYTE   PATT
  POIN2 Label_1_0176B7A5
// 024   ----------------------------------------
 BYTE   N12  Bn4  v096
 BYTE   W12
 BYTE   En4
 BYTE   W12
 BYTE   N48  Fs4
 BYTE   W48
 BYTE   N24  Ds4
 BYTE   W24
// 025   ----------------------------------------
 BYTE   Gs4
 BYTE   W24
 BYTE   N12  Fs4
 BYTE   W12
 BYTE   Gs4
 BYTE   W12
 BYTE   N24  En4
 BYTE   W24
 BYTE   BEND   c_v+0
 BYTE   N24  Fs4
 BYTE   W01
 BYTE   BEND   c_v+0
 BYTE   W01
 BYTE   En3
 BYTE   W01
 BYTE   En3
 BYTE   W01
 BYTE   En3
 BYTE   W01
 BYTE   En3
 BYTE   W01
 BYTE   En3
 BYTE   W01
 BYTE   Fn3
 BYTE   W01
 BYTE   Fs3
 BYTE   W01
 BYTE   Fs3
 BYTE   W01
 BYTE   Fn3
 BYTE   W01
 BYTE   Ds3
 BYTE   W01
 BYTE   Dn3
 BYTE   W01
 BYTE   Dn3
 BYTE   W01
 BYTE   En3
 BYTE   W01
 BYTE   Fn3
 BYTE   W01
 BYTE   Fs3
 BYTE   W01
 BYTE   Fn3
 BYTE   W01
 BYTE   En3
 BYTE   W01
 BYTE   Ds3
 BYTE   W01
 BYTE   Dn3
 BYTE   W01
 BYTE   Ds3
 BYTE   W01
 BYTE   En3
 BYTE   W01
 BYTE   Fn3
 BYTE   W01
// 026   ----------------------------------------
 BYTE   En3
 BYTE   N48  Ds4
 BYTE   W48
 BYTE   N96  Bn3
 BYTE   W44
 BYTE   W03
 BYTE   VOL   49*AThousandTales_mvl/mxv
 BYTE   W01
// 027   ----------------------------------------
 BYTE   W02
 BYTE   An1
 BYTE   W03
 BYTE   Fn1
 BYTE   W04
 BYTE   Cs1
 BYTE   W05
 BYTE   An0
 BYTE   W04
 BYTE   Fn0
 BYTE   W04
 BYTE   Cs0
 BYTE   W05
 BYTE   AnM1
 BYTE   W04
 BYTE   FnM1
 BYTE   W04
 BYTE   DnM1
 BYTE   W04
 BYTE   AsM2
 BYTE   W04
 BYTE   FsM2
 BYTE   W04
 BYTE   DnM2
 BYTE   W01
 BYTE   GoTo
  POIN2 Label_1_0176B788
 BYTE   FINE

//**************** Track 3 (Midi-Chn.2) ****************//

AThousandTales_003:
// 000   ----------------------------------------
 BYTE   KEYSH   AThousandTales_key+0
Label_2_0176B848:
 BYTE   VOICE   46
 BYTE   VOL   34*AThousandTales_mvl/mxv
 BYTE   PAN   c_v+0
 BYTE   VOL   34*AThousandTales_mvl/mxv
 BYTE   PAN   c_v+0
 BYTE   BEND   c_v+0
 BYTE   N11  Bn1  v096
 BYTE   W12
 BYTE   N12  Fs2
 BYTE   W12
 BYTE   Bn2
 BYTE   W12
 BYTE   Ds3
 BYTE   W12
 BYTE   As3
 BYTE   W12
 BYTE   Fs2
 BYTE   W12
 BYTE   Bn2
 BYTE   W12
 BYTE   Ds3
 BYTE   W12
// 001   ----------------------------------------
Label_2_0176B867:
 BYTE   N12  Gs3  v096
 BYTE   W12
 BYTE   Ds3
 BYTE   W12
 BYTE   Bn2
 BYTE   W12
 BYTE   Fs2
 BYTE   W12
 BYTE   En3
 BYTE   W12
 BYTE   Fs2
 BYTE   W12
 BYTE   Cs3
 BYTE   W12
 BYTE   Fs2
 BYTE   W12
 BYTE   PEND 
// 002   ----------------------------------------
Label_2_0176B87A:
 BYTE   N12  Gs2  v096
 BYTE   W12
 BYTE   Cs3
 BYTE   W12
 BYTE   Ds3
 BYTE   W12
 BYTE   Gs3
 BYTE   W12
 BYTE   Cs4
 BYTE   W12
 BYTE   Bn3
 BYTE   W12
 BYTE   As3
 BYTE   W12
 BYTE   Bn3
 BYTE   W12
 BYTE   PEND 
// 003   ----------------------------------------
Label_2_0176B88D:
 BYTE   N12  Cs4  v096
 BYTE   W12
 BYTE   Fs3
 BYTE   W12
 BYTE   Ds4
 BYTE   W12
 BYTE   Fs3
 BYTE   W12
 BYTE   Fs4
 BYTE   W12
 BYTE   As3
 BYTE   W12
 BYTE   Ds4
 BYTE   W12
 BYTE   Bn3
 BYTE   W12
 BYTE   PEND 
// 004   ----------------------------------------
Label_2_0176B8A0:
 BYTE   N12  Bn1  v096
 BYTE   W12
 BYTE   Fs2
 BYTE   W12
 BYTE   Bn2
 BYTE   W12
 BYTE   Ds3
 BYTE   W12
 BYTE   As3
 BYTE   W12
 BYTE   Fs2
 BYTE   W12
 BYTE   Bn2
 BYTE   W12
 BYTE   Ds3
 BYTE   W12
 BYTE   PEND 
 BYTE   PATT
  POIN2 Label_2_0176B867
// 005   ----------------------------------------
 BYTE   N12  Cs3  v096
 BYTE   W12
 BYTE   As3
 BYTE   W12
 BYTE   Bn3
 BYTE   W12
 BYTE   Fs4
 BYTE   W12
 BYTE   Cs4
 BYTE   W12
 BYTE   Bn3
 BYTE   W12
 BYTE   As3
 BYTE   W12
 BYTE   En3
 BYTE   W12
// 006   ----------------------------------------
 BYTE   Fs3
 BYTE   W12
 BYTE   As3
 BYTE   W12
 BYTE   Ds4
 BYTE   W12
 BYTE   Gs3
 BYTE   W12
 BYTE   N24  As3
 BYTE   W24
 BYTE   Bn3
 BYTE   W24
// 007   ----------------------------------------
 BYTE   N12  Bn1
 BYTE   W12
 BYTE   Fs2
 BYTE   W12
 BYTE   Bn2
 BYTE   W12
 BYTE   Ds3
 BYTE   W12
 BYTE   As3
 BYTE   W12
 BYTE   Fs2
 BYTE   W12
 BYTE   Bn2
 BYTE   N12  Ds3
 BYTE   W12
 BYTE   N12
 BYTE   W12
 BYTE   PATT
  POIN2 Label_2_0176B867
 BYTE   PATT
  POIN2 Label_2_0176B87A
// 008   ----------------------------------------
 BYTE   N12  Cs4  v096
 BYTE   W12
 BYTE   Fs3
 BYTE   W12
 BYTE   Cs3
 BYTE   N12  Ds4
 BYTE   W12
 BYTE   Fs3
 BYTE   W12
 BYTE   Fs4
 BYTE   W12
 BYTE   As3
 BYTE   W12
 BYTE   Ds4
 BYTE   W12
 BYTE   Bn3
 BYTE   W12
// 009   ----------------------------------------
 BYTE   Bn1
 BYTE   W12
 BYTE   Fs2
 BYTE   W12
 BYTE   Bn2
 BYTE   W12
 BYTE   Ds3
 BYTE   W12
 BYTE   Bn3
 BYTE   W12
 BYTE   Gs3
 BYTE   W12
 BYTE   Gs2
 BYTE   N12  Cs3
 BYTE   W12
 BYTE   Ds3
 BYTE   N12  Bn3
 BYTE   W12
// 010   ----------------------------------------
 BYTE   Fs3
 BYTE   W12
 BYTE   Ds3
 BYTE   W12
 BYTE   Bn2
 BYTE   W12
 BYTE   Fs3
 BYTE   W12
 BYTE   En3
 BYTE   W12
 BYTE   Fs3
 BYTE   W12
 BYTE   Cs3
 BYTE   W12
 BYTE   En2
 BYTE   W12
 BYTE   PATT
  POIN2 Label_2_0176B87A
// 011   ----------------------------------------
Label_2_0176B931:
 BYTE   N12  Fs3  v096
 BYTE   W12
 BYTE   Bn2
 BYTE   W12
 BYTE   Gs3
 BYTE   W12
 BYTE   Bn2
 BYTE   W12
 BYTE   N24  As3
 BYTE   W24
 BYTE   Bn3
 BYTE   W24
 BYTE   PEND 
 BYTE   PATT
  POIN2 Label_2_0176B8A0
 BYTE   PATT
  POIN2 Label_2_0176B867
 BYTE   PATT
  POIN2 Label_2_0176B87A
 BYTE   PATT
  POIN2 Label_2_0176B88D
 BYTE   PATT
  POIN2 Label_2_0176B8A0
 BYTE   PATT
  POIN2 Label_2_0176B867
// 012   ----------------------------------------
 BYTE   N12  Gs2  v096
 BYTE   W12
 BYTE   Cs3
 BYTE   W12
 BYTE   Ds3
 BYTE   W12
 BYTE   Gs3
 BYTE   W12
 BYTE   Cs4
 BYTE   W24
 BYTE   As3
 BYTE   W12
 BYTE   Bn3
 BYTE   W12
 BYTE   PATT
  POIN2 Label_2_0176B88D
 BYTE   PATT
  POIN2 Label_2_0176B8A0
 BYTE   PATT
  POIN2 Label_2_0176B867
// 013   ----------------------------------------
 BYTE   N12  Gs2  v096
 BYTE   W12
 BYTE   Cs3
 BYTE   W12
 BYTE   Ds3
 BYTE   W12
 BYTE   Gs3
 BYTE   W24
 BYTE   Bn3
 BYTE   W12
 BYTE   As3
 BYTE   W12
 BYTE   Bn3
 BYTE   W12
 BYTE   PATT
  POIN2 Label_2_0176B931
// 014   ----------------------------------------
 BYTE   W48
 BYTE   GoTo
  POIN2 Label_2_0176B848
 BYTE   FINE

//**************** Track 4 (Midi-Chn.3) ****************//

AThousandTales_004:
// 000   ----------------------------------------
 BYTE   KEYSH   AThousandTales_key+0
Label_3_0176B99C:
 BYTE   VOICE   46
 BYTE   PAN   c_v+0
 BYTE   W05
 BYTE   W01
 BYTE   VOICE   46
 BYTE   PAN   c_v+63
 BYTE   VOL   17*AThousandTales_mvl/mxv
 BYTE   BEND   c_v+0
 BYTE   N11  Bn1  v096
 BYTE   W12
 BYTE   N12  Fs2
 BYTE   W12
 BYTE   Bn2
 BYTE   W12
 BYTE   Ds3
 BYTE   W12
 BYTE   As3
 BYTE   W12
 BYTE   Fs2
 BYTE   W12
 BYTE   Bn2
 BYTE   W12
 BYTE   Ds3
 BYTE   W06
// 001   ----------------------------------------
Label_3_0176B9BD:
 BYTE   W06
 BYTE   N12  Gs3  v096
 BYTE   W12
 BYTE   Ds3
 BYTE   W12
 BYTE   Bn2
 BYTE   W12
 BYTE   Fs2
 BYTE   W12
 BYTE   En3
 BYTE   W12
 BYTE   Fs2
 BYTE   W12
 BYTE   Cs3
 BYTE   W12
 BYTE   Fs2
 BYTE   W06
 BYTE   PEND 
// 002   ----------------------------------------
Label_3_0176B9D1:
 BYTE   W06
 BYTE   N12  Gs2  v096
 BYTE   W12
 BYTE   Cs3
 BYTE   W12
 BYTE   Ds3
 BYTE   W12
 BYTE   Gs3
 BYTE   W12
 BYTE   Cs4
 BYTE   W12
 BYTE   Bn3
 BYTE   W12
 BYTE   As3
 BYTE   W12
 BYTE   Bn3
 BYTE   W06
 BYTE   PEND 
// 003   ----------------------------------------
Label_3_0176B9E5:
 BYTE   W06
 BYTE   N12  Cs4  v096
 BYTE   W12
 BYTE   Fs3
 BYTE   W12
 BYTE   Ds4
 BYTE   W12
 BYTE   Fs3
 BYTE   W12
 BYTE   Fs4
 BYTE   W12
 BYTE   As3
 BYTE   W12
 BYTE   Ds4
 BYTE   W12
 BYTE   Bn3
 BYTE   W06
 BYTE   PEND 
// 004   ----------------------------------------
Label_3_0176B9F9:
 BYTE   W06
 BYTE   N12  Bn1  v096
 BYTE   W12
 BYTE   Fs2
 BYTE   W12
 BYTE   Bn2
 BYTE   W12
 BYTE   Ds3
 BYTE   W12
 BYTE   As3
 BYTE   W12
 BYTE   Fs2
 BYTE   W12
 BYTE   Bn2
 BYTE   W12
 BYTE   Ds3
 BYTE   W06
 BYTE   PEND 
 BYTE   PATT
  POIN2 Label_3_0176B9BD
// 005   ----------------------------------------
 BYTE   W06
 BYTE   N12  Cs3  v096
 BYTE   W12
 BYTE   As3
 BYTE   W12
 BYTE   Bn3
 BYTE   W12
 BYTE   Fs4
 BYTE   W12
 BYTE   Cs4
 BYTE   W12
 BYTE   Bn3
 BYTE   W12
 BYTE   As3
 BYTE   W12
 BYTE   En3
 BYTE   W06
// 006   ----------------------------------------
 BYTE   W06
 BYTE   Fs3
 BYTE   W12
 BYTE   As3
 BYTE   W12
 BYTE   Ds4
 BYTE   W12
 BYTE   Gs3
 BYTE   W12
 BYTE   N24  As3
 BYTE   W24
 BYTE   Bn3
 BYTE   W18
// 007   ----------------------------------------
 BYTE   W06
 BYTE   N12  Bn1
 BYTE   W12
 BYTE   Fs2
 BYTE   W12
 BYTE   Bn2
 BYTE   W12
 BYTE   Ds3
 BYTE   W12
 BYTE   As3
 BYTE   W12
 BYTE   Fs2
 BYTE   W12
 BYTE   Bn2
 BYTE   N12  Ds3
 BYTE   W12
 BYTE   N12
 BYTE   W06
 BYTE   PATT
  POIN2 Label_3_0176B9BD
 BYTE   PATT
  POIN2 Label_3_0176B9D1
// 008   ----------------------------------------
 BYTE   W06
 BYTE   N12  Cs4  v096
 BYTE   W12
 BYTE   Fs3
 BYTE   W12
 BYTE   Cs3
 BYTE   N12  Ds4
 BYTE   W12
 BYTE   Fs3
 BYTE   W12
 BYTE   Fs4
 BYTE   W12
 BYTE   As3
 BYTE   W12
 BYTE   Ds4
 BYTE   W12
 BYTE   Bn3
 BYTE   W06
// 009   ----------------------------------------
 BYTE   W06
 BYTE   Bn1
 BYTE   W12
 BYTE   Fs2
 BYTE   W12
 BYTE   Bn2
 BYTE   W12
 BYTE   Ds3
 BYTE   W12
 BYTE   Bn3
 BYTE   W12
 BYTE   Gs3
 BYTE   W12
 BYTE   Gs2
 BYTE   N12  Cs3
 BYTE   W12
 BYTE   Ds3
 BYTE   N12  Bn3
 BYTE   W06
// 010   ----------------------------------------
 BYTE   W06
 BYTE   Fs3
 BYTE   W12
 BYTE   Ds3
 BYTE   W12
 BYTE   Bn2
 BYTE   W12
 BYTE   Fs3
 BYTE   W12
 BYTE   En3
 BYTE   W12
 BYTE   Fs3
 BYTE   W12
 BYTE   Cs3
 BYTE   W12
 BYTE   En2
 BYTE   W06
 BYTE   PATT
  POIN2 Label_3_0176B9D1
// 011   ----------------------------------------
Label_3_0176BA91:
 BYTE   W06
 BYTE   N12  Fs3  v096
 BYTE   W12
 BYTE   Bn2
 BYTE   W12
 BYTE   Gs3
 BYTE   W12
 BYTE   Bn2
 BYTE   W12
 BYTE   N24  As3
 BYTE   W24
 BYTE   Bn3
 BYTE   W18
 BYTE   PEND 
 BYTE   PATT
  POIN2 Label_3_0176B9F9
 BYTE   PATT
  POIN2 Label_3_0176B9BD
 BYTE   PATT
  POIN2 Label_3_0176B9D1
 BYTE   PATT
  POIN2 Label_3_0176B9E5
 BYTE   PATT
  POIN2 Label_3_0176B9F9
 BYTE   PATT
  POIN2 Label_3_0176B9BD
// 012   ----------------------------------------
 BYTE   W06
 BYTE   N12  Gs2  v096
 BYTE   W12
 BYTE   Cs3
 BYTE   W12
 BYTE   Ds3
 BYTE   W12
 BYTE   Gs3
 BYTE   W12
 BYTE   Cs4
 BYTE   W24
 BYTE   As3
 BYTE   W12
 BYTE   Bn3
 BYTE   W06
 BYTE   PATT
  POIN2 Label_3_0176B9E5
 BYTE   PATT
  POIN2 Label_3_0176B9F9
 BYTE   PATT
  POIN2 Label_3_0176B9BD
// 013   ----------------------------------------
 BYTE   W06
 BYTE   N12  Gs2  v096
 BYTE   W12
 BYTE   Cs3
 BYTE   W12
 BYTE   Ds3
 BYTE   W12
 BYTE   Gs3
 BYTE   W24
 BYTE   Bn3
 BYTE   W12
 BYTE   As3
 BYTE   W12
 BYTE   Bn3
 BYTE   W06
 BYTE   PATT
  POIN2 Label_3_0176BA91
// 014   ----------------------------------------
 BYTE   W06
 BYTE   W42
 BYTE   GoTo
  POIN2 Label_3_0176B99C
 BYTE   FINE

//**************** Track 5 (Midi-Chn.4) ****************//

AThousandTales_005:
// 000   ----------------------------------------
 BYTE   KEYSH   AThousandTales_key+0
Label_4_0176BB00:
 BYTE   VOICE   46
 BYTE   W11
 BYTE   W01
 BYTE   Gs1
 BYTE   PAN   c_v-64
 BYTE   VOL   13*AThousandTales_mvl/mxv
 BYTE   BEND   c_v+0
 BYTE   N11  Bn1  v096
 BYTE   W12
 BYTE   N12  Fs2
 BYTE   W12
 BYTE   Bn2
 BYTE   W12
 BYTE   Ds3
 BYTE   W12
 BYTE   As3
 BYTE   W12
 BYTE   Fs2
 BYTE   W12
 BYTE   Bn2
 BYTE   W12
// 001   ----------------------------------------
Label_4_0176BB1C:
 BYTE   N12  Ds3  v096
 BYTE   W12
 BYTE   Gs3
 BYTE   W12
 BYTE   Ds3
 BYTE   W12
 BYTE   Bn2
 BYTE   W12
 BYTE   Fs2
 BYTE   W12
 BYTE   En3
 BYTE   W12
 BYTE   Fs2
 BYTE   W12
 BYTE   Cs3
 BYTE   W12
 BYTE   PEND 
// 002   ----------------------------------------
Label_4_0176BB2F:
 BYTE   N12  Fs2  v096
 BYTE   W12
 BYTE   Gs2
 BYTE   W12
 BYTE   Cs3
 BYTE   W12
 BYTE   Ds3
 BYTE   W12
 BYTE   Gs3
 BYTE   W12
 BYTE   Cs4
 BYTE   W12
 BYTE   Bn3
 BYTE   W12
 BYTE   As3
 BYTE   W12
 BYTE   PEND 
// 003   ----------------------------------------
Label_4_0176BB42:
 BYTE   N12  Bn3  v096
 BYTE   W12
 BYTE   Cs4
 BYTE   W12
 BYTE   Fs3
 BYTE   W12
 BYTE   Ds4
 BYTE   W12
 BYTE   Fs3
 BYTE   W12
 BYTE   Fs4
 BYTE   W12
 BYTE   As3
 BYTE   W12
 BYTE   Ds4
 BYTE   W12
 BYTE   PEND 
// 004   ----------------------------------------
Label_4_0176BB55:
 BYTE   N12  Bn3  v096
 BYTE   W12
 BYTE   Bn1
 BYTE   W12
 BYTE   Fs2
 BYTE   W12
 BYTE   Bn2
 BYTE   W12
 BYTE   Ds3
 BYTE   W12
 BYTE   As3
 BYTE   W12
 BYTE   Fs2
 BYTE   W12
 BYTE   Bn2
 BYTE   W12
 BYTE   PEND 
 BYTE   PATT
  POIN2 Label_4_0176BB1C
// 005   ----------------------------------------
 BYTE   N12  Fs2  v096
 BYTE   W12
 BYTE   Cs3
 BYTE   W12
 BYTE   As3
 BYTE   W12
 BYTE   Bn3
 BYTE   W12
 BYTE   Fs4
 BYTE   W12
 BYTE   Cs4
 BYTE   W12
 BYTE   Bn3
 BYTE   W12
 BYTE   As3
 BYTE   W12
// 006   ----------------------------------------
 BYTE   En3
 BYTE   W12
 BYTE   Fs3
 BYTE   W12
 BYTE   As3
 BYTE   W12
 BYTE   Ds4
 BYTE   W12
 BYTE   Gs3
 BYTE   W12
 BYTE   N24  As3
 BYTE   W24
 BYTE   Bn3
 BYTE   W12
// 007   ----------------------------------------
 BYTE   W12
 BYTE   N12  Bn1
 BYTE   W12
 BYTE   Fs2
 BYTE   W12
 BYTE   Bn2
 BYTE   W12
 BYTE   Ds3
 BYTE   W12
 BYTE   As3
 BYTE   W12
 BYTE   Fs2
 BYTE   W12
 BYTE   Bn2
 BYTE   N12  Ds3
 BYTE   W12
 BYTE   PATT
  POIN2 Label_4_0176BB1C
 BYTE   PATT
  POIN2 Label_4_0176BB2F
// 008   ----------------------------------------
 BYTE   N12  Bn3  v096
 BYTE   W12
 BYTE   Cs4
 BYTE   W12
 BYTE   Fs3
 BYTE   W12
 BYTE   Cs3
 BYTE   N12  Ds4
 BYTE   W12
 BYTE   Fs3
 BYTE   W12
 BYTE   Fs4
 BYTE   W12
 BYTE   As3
 BYTE   W12
 BYTE   Ds4
 BYTE   W12
// 009   ----------------------------------------
 BYTE   Bn3
 BYTE   W12
 BYTE   Bn1
 BYTE   W12
 BYTE   Fs2
 BYTE   W12
 BYTE   Bn2
 BYTE   W12
 BYTE   Ds3
 BYTE   W12
 BYTE   Bn3
 BYTE   W12
 BYTE   Gs3
 BYTE   W12
 BYTE   Gs2
 BYTE   N12  Cs3
 BYTE   W12
// 010   ----------------------------------------
 BYTE   Ds3
 BYTE   N12  Bn3
 BYTE   W12
 BYTE   Fs3
 BYTE   W12
 BYTE   Ds3
 BYTE   W12
 BYTE   Bn2
 BYTE   W12
 BYTE   Fs3
 BYTE   W12
 BYTE   En3
 BYTE   W12
 BYTE   Fs3
 BYTE   W12
 BYTE   Cs3
 BYTE   W12
// 011   ----------------------------------------
 BYTE   En2
 BYTE   W12
 BYTE   Gs2
 BYTE   W12
 BYTE   Cs3
 BYTE   W12
 BYTE   Ds3
 BYTE   W12
 BYTE   Gs3
 BYTE   W12
 BYTE   Cs4
 BYTE   W12
 BYTE   Bn3
 BYTE   W12
 BYTE   As3
 BYTE   W12
// 012   ----------------------------------------
Label_4_0176BBF2:
 BYTE   N12  Bn3  v096
 BYTE   W12
 BYTE   Fs3
 BYTE   W12
 BYTE   Bn2
 BYTE   W12
 BYTE   Gs3
 BYTE   W12
 BYTE   Bn2
 BYTE   W12
 BYTE   N24  As3
 BYTE   W24
 BYTE   Bn3
 BYTE   W12
 BYTE   PEND 
// 013   ----------------------------------------
 BYTE   W12
 BYTE   N12  Bn1
 BYTE   W12
 BYTE   Fs2
 BYTE   W12
 BYTE   Bn2
 BYTE   W12
 BYTE   Ds3
 BYTE   W12
 BYTE   As3
 BYTE   W12
 BYTE   Fs2
 BYTE   W12
 BYTE   Bn2
 BYTE   W12
 BYTE   PATT
  POIN2 Label_4_0176BB1C
 BYTE   PATT
  POIN2 Label_4_0176BB2F
 BYTE   PATT
  POIN2 Label_4_0176BB42
 BYTE   PATT
  POIN2 Label_4_0176BB55
 BYTE   PATT
  POIN2 Label_4_0176BB1C
// 014   ----------------------------------------
 BYTE   N12  Fs2  v096
 BYTE   W12
 BYTE   Gs2
 BYTE   W12
 BYTE   Cs3
 BYTE   W12
 BYTE   Ds3
 BYTE   W12
 BYTE   Gs3
 BYTE   W12
 BYTE   Cs4
 BYTE   W24
 BYTE   As3
 BYTE   W12
 BYTE   PATT
  POIN2 Label_4_0176BB42
 BYTE   PATT
  POIN2 Label_4_0176BB55
 BYTE   PATT
  POIN2 Label_4_0176BB1C
// 015   ----------------------------------------
 BYTE   N12  Fs2  v096
 BYTE   W12
 BYTE   Gs2
 BYTE   W12
 BYTE   Cs3
 BYTE   W12
 BYTE   Ds3
 BYTE   W12
 BYTE   Gs3
 BYTE   W24
 BYTE   Bn3
 BYTE   W12
 BYTE   As3
 BYTE   W12
 BYTE   PATT
  POIN2 Label_4_0176BBF2
// 016   ----------------------------------------
 BYTE   W12
 BYTE   W36
 BYTE   GoTo
  POIN2 Label_4_0176BB00
 BYTE   FINE

//**************** Track 6 (Midi-Chn.5) ****************//

AThousandTales_006:
// 000   ----------------------------------------
 BYTE   KEYSH   AThousandTales_key+0
Label_5_0176BC6B:
 BYTE   VOICE   48
 BYTE   VOL   34*AThousandTales_mvl/mxv
 BYTE   PAN   c_v+0
 BYTE   VOL   34*AThousandTales_mvl/mxv
 BYTE   PAN   c_v+0
 BYTE   BEND   c_v+0
 BYTE   W96
// 001   ----------------------------------------
 BYTE   W96
// 002   ----------------------------------------
 BYTE   W96
// 003   ----------------------------------------
 BYTE   W96
// 004   ----------------------------------------
 BYTE   W96
// 005   ----------------------------------------
 BYTE   W96
// 006   ----------------------------------------
 BYTE   W96
// 007   ----------------------------------------
 BYTE   W96
// 008   ----------------------------------------
 BYTE   N96  Bn1  v096
 BYTE   N96  Fs2
 BYTE   W96
// 009   ----------------------------------------
 BYTE   N48  Gs1
 BYTE   N48  Ds2
 BYTE   W48
 BYTE   Gs1
 BYTE   N48  Cs2
 BYTE   W48
// 010   ----------------------------------------
 BYTE   N72  Gs1
 BYTE   N72  Cs2
 BYTE   W72
 BYTE   N12  Fs1
 BYTE   W12
 BYTE   Bn1
 BYTE   W12
// 011   ----------------------------------------
 BYTE   N48  Cs2
 BYTE   N48  Bn2
 BYTE   W48
 BYTE   Bn1
 BYTE   N48  Ds2
 BYTE   W48
// 012   ----------------------------------------
 BYTE   N96  Bn1
 BYTE   N96  Fs2
 BYTE   W96
// 013   ----------------------------------------
 BYTE   Bn1
 BYTE   N96  Gs2
 BYTE   W96
// 014   ----------------------------------------
 BYTE   Cs2
 BYTE   N96  Gs2
 BYTE   W96
// 015   ----------------------------------------
 BYTE   N48  Fs2
 BYTE   N48  Cs3
 BYTE   W48
 BYTE   Bn1
 BYTE   N48  Fs2
 BYTE   W48
// 016   ----------------------------------------
 BYTE   N96
 BYTE   N96  Bn2
 BYTE   W96
// 017   ----------------------------------------
 BYTE   N48  Gs2
 BYTE   N48  Cs3
 BYTE   W48
 BYTE   Bn2
 BYTE   N48  Fs3
 BYTE   W48
// 018   ----------------------------------------
 BYTE   N72  Ds2
 BYTE   N72  Bn2
 BYTE   W72
 BYTE   N24  Ds2
 BYTE   N24  Cs3
 BYTE   W24
// 019   ----------------------------------------
 BYTE   N48  Bn1
 BYTE   N48  Fs2
 BYTE   N48  Fs3
 BYTE   W48
 BYTE   Cs2
 BYTE   N48  Fs2
 BYTE   N48  Fs3
 BYTE   W48
// 020   ----------------------------------------
 BYTE   N96  Bn1
 BYTE   N96  Fs2
 BYTE   N96  Fs3
 BYTE   W96
// 021   ----------------------------------------
 BYTE   N48  Gs1
 BYTE   N48  Ds2
 BYTE   W48
 BYTE   Fs1
 BYTE   W48
// 022   ----------------------------------------
 BYTE   N12  Bn1
 BYTE   W12
 BYTE   As1
 BYTE   W12
 BYTE   N48  Fs1
 BYTE   N48  As1
 BYTE   N48  Cs3
 BYTE   W48
 BYTE   N12  En1
 BYTE   N12  Bn1
 BYTE   N12  Gs2
 BYTE   W12
 BYTE   Fs1
 BYTE   W12
// 023   ----------------------------------------
 BYTE   N48
 BYTE   N48  Ds2
 BYTE   N48  En2
 BYTE   W48
 BYTE   N24  En1
 BYTE   N24  Bn1
 BYTE   W24
 BYTE   Fs1
 BYTE   N24  Bn1
 BYTE   N24  Ds2
 BYTE   W24
// 024   ----------------------------------------
 BYTE   N48  Bn1
 BYTE   N48  Fs2
 BYTE   W48
 BYTE   N24  As1
 BYTE   W24
 BYTE   Bn1
 BYTE   N24  Fs2
 BYTE   W24
// 025   ----------------------------------------
 BYTE   N12  Bn1
 BYTE   W12
 BYTE   Fs1
 BYTE   W12
 BYTE   N48  En1
 BYTE   W48
 BYTE   N24  Bn1
 BYTE   W24
// 026   ----------------------------------------
 BYTE   N48  Ds2
 BYTE   W48
 BYTE   En2
 BYTE   W48
// 027   ----------------------------------------
 BYTE   Fs1
 BYTE   N48  Cs2
 BYTE   W48
 BYTE   Bn1
 BYTE   N48  Fs2
 BYTE   W48
// 028   ----------------------------------------
 BYTE   W48
 BYTE   GoTo
  POIN2 Label_5_0176BC6B
 BYTE   FINE

//******************************************************//
	ALIGN 4

AThousandTales:
	BYTE	6	// NumTrks
	BYTE	0	// NumBlks
	BYTE	AThousandTales_pri	// Priority
	BYTE	AThousandTales_rev	// Reverb.
    
	POIN2	AThousandTales_grp
    
	POIN2	AThousandTales_001
	POIN2	AThousandTales_002
	POIN2	AThousandTales_003
	POIN2	AThousandTales_004
	POIN2	AThousandTales_005
	POIN2	AThousandTales_006

	
